<svg width="255" height="255" viewBox="0 0 255 255" fill="none" xmlns="http://www.w3.org/2000/svg">
<rect width="255" height="255" rx="16" fill="#2D3748"/>
<path d="M49.0763 143.288C49.0763 137.432 50.0843 132.2 52.1003 127.592C54.2123 122.984 56.9963 119.096 60.4523 115.928C63.9083 112.664 67.8443 110.168 72.2603 108.44C76.7723 106.712 81.4283 105.848 86.2283 105.848C91.7003 105.848 96.5483 106.712 100.772 108.44C104.996 110.168 108.5 112.568 111.284 115.64C114.068 118.712 116.18 122.36 117.62 126.584C119.06 130.712 119.78 135.224 119.78 140.12C119.78 142.04 119.684 143.864 119.492 145.592C119.3 147.32 119.108 148.616 118.916 149.48H70.8203C71.5883 154.856 73.8923 158.744 77.7323 161.144C81.6683 163.448 86.2763 164.6 91.5563 164.6C94.8202 164.6 97.8923 164.216 100.772 163.448C103.748 162.584 106.82 161.336 109.988 159.704L116.9 172.376C112.868 174.968 108.356 177.032 103.364 178.568C98.3723 180.008 93.4763 180.728 88.6763 180.728C83.1083 180.728 77.9243 179.912 73.1243 178.28C68.3243 176.552 64.1483 174.104 60.5963 170.936C57.0443 167.672 54.2123 163.736 52.1003 159.128C50.0843 154.52 49.0763 149.24 49.0763 143.288ZM100.628 135.512C100.628 131.48 99.5243 128.216 97.3163 125.72C95.1083 123.224 91.5563 121.976 86.6603 121.976C82.8203 121.976 79.4123 123.08 76.4362 125.288C73.4602 127.496 71.4922 130.904 70.5322 135.512H100.628Z" fill="#F7FAFC"/>
<path d="M161.052 180.44C161.052 177.848 161.1 175.544 161.196 173.528C161.388 171.512 161.58 169.592 161.772 167.768C161.964 165.848 162.108 163.976 162.204 162.152C162.396 160.232 162.492 158.12 162.492 155.816C162.492 154.568 162.204 153.32 161.628 152.072C161.052 150.824 159.996 149.72 158.46 148.76C156.924 147.704 154.86 146.888 152.268 146.312C149.772 145.64 146.604 145.256 142.764 145.16V132.776C146.604 132.68 149.772 132.344 152.268 131.768C154.86 131.096 156.924 130.28 158.46 129.32C159.996 128.264 161.052 127.112 161.628 125.864C162.204 124.616 162.492 123.368 162.492 122.12C162.492 119.912 162.396 117.848 162.204 115.928C162.108 114.008 161.964 112.136 161.772 110.312C161.58 108.392 161.388 106.424 161.196 104.408C161.1 102.296 161.052 99.992 161.052 97.496C161.052 89.72 163.212 84.392 167.532 81.512C171.852 78.536 178.62 77.048 187.836 77.048H198.924V88.28H193.02C190.044 88.28 187.596 88.424 185.676 88.712C183.756 89 182.268 89.528 181.212 90.296C180.156 91.064 179.388 92.12 178.908 93.464C178.524 94.712 178.332 96.344 178.332 98.36C178.332 102.2 178.428 105.992 178.62 109.736C178.908 113.48 179.052 117.512 179.052 121.832C179.052 127.304 177.948 131.288 175.74 133.784C173.532 136.184 169.836 137.816 164.652 138.68V139.256C169.836 140.12 173.532 141.8 175.74 144.296C177.948 146.696 179.052 150.632 179.052 156.104C179.052 160.52 178.908 164.552 178.62 168.2C178.428 171.848 178.332 175.64 178.332 179.576C178.332 181.592 178.524 183.224 178.908 184.472C179.388 185.816 180.156 186.872 181.212 187.64C182.268 188.408 183.756 188.936 185.676 189.224C187.596 189.512 190.044 189.656 193.02 189.656H198.924V200.888H187.836C178.62 200.888 171.852 199.4 167.532 196.424C163.212 193.544 161.052 188.216 161.052 180.44Z" fill="#F7FAFC"/>
</svg>