<svg xmlns="http://www.w3.org/2000/svg" viewBox="0 0 512 512"><path d="M229.432 265.073v40.459c0 14.673 11.895 26.568 26.568 26.568 14.673 0 26.568-11.895 26.568-26.568v-40.459h-53.136z" fill="#bab8b9"/><path d="M249.432 305.531v-40.458h-20v40.458c0 14.673 11.895 26.568 26.568 26.568 3.539 0 6.912-.698 10-1.953-9.715-3.951-16.568-13.48-16.568-24.615z" fill="#a19fa0"/><path d="M256 59.232c-47.535 0-86.07 38.535-86.07 86.07 0 57.744 42.749 69.08 42.749 95.297L256 255.953l43.321-15.354c0-26.216 42.749-37.553 42.749-95.297 0-47.535-38.535-86.07-86.07-86.07z" fill="#ffcd38"/><path d="M232.679 240.599c0-26.216-42.749-37.553-42.749-95.297 0-44.15 33.249-80.515 76.07-85.473a86.867 86.867 0 00-10-.597c-47.535 0-86.07 38.535-86.07 86.07 0 57.744 42.749 69.081 42.749 95.297L256 255.953l10-3.544-33.321-11.81z" fill="#ebaf03"/><path d="M498.789 416.075c0-57.677-48.498-104.6-108.111-104.6-59.612 0-108.11 46.923-108.11 104.6h216.221z" fill="#333e40"/><path d="M405.678 312.486a112.067 112.067 0 00-15-1.011c-59.612 0-108.11 46.923-108.11 104.6h30c0-52.752 40.573-96.502 93.11-103.589z" fill="#283234"/><path d="M229.432 416.075c0-57.677-48.498-104.6-108.111-104.6-59.612 0-108.11 46.923-108.11 104.6v38.651c0 13.605 11.029 24.633 24.633 24.633h166.954c13.605 0 24.633-11.029 24.633-24.633v-38.651h.001z" fill="#c76d5f"/><path d="M43.212 454.725v-38.651c0-52.752 40.573-96.501 93.11-103.589a112.067 112.067 0 00-15-1.011c-59.612 0-108.11 46.923-108.11 104.6v38.651c0 13.605 11.029 24.633 24.633 24.633h30c-13.605.001-24.633-11.028-24.633-24.633z" fill="#af4e42"/><g fill="#e6b09c"><circle cx="212.33" cy="416.07" r="22.815"/><circle cx="481.69" cy="416.07" r="22.815"/></g><path d="M212.328 415.66c-.184-38.118-39.949-63.559-74.665-47.817a89.387 89.387 0 00-7.076 3.6 18.809 18.809 0 01-18.531 0 89.56 89.56 0 00-7.076-3.6c-34.716-15.742-74.48 9.699-74.665 47.817l-.001.415c0 48.323 40.745 87.497 91.007 87.497s91.007-39.174 91.007-87.497v-.415z" fill="#ffc4b0"/><path d="M50.314 416.075l.001-.415c.129-26.574 19.495-46.981 42.975-51.574-24.063-4.738-48.151 8.212-58.149 29.791-1.417-.399-3.015-.617-4.827-.617-12.6 0-22.815 10.214-22.815 22.814s10.214 22.815 22.815 22.815a19.6 19.6 0 003.066-.233c10.357 37.377 45.802 64.916 87.941 64.916 3.38 0 6.715-.183 10-.528-45.555-4.788-81.007-41.895-81.007-86.969z" fill="#e6b09c"/><path d="M481.684 415.66c-.184-38.118-39.949-63.559-74.665-47.817a89.387 89.387 0 00-7.076 3.6 18.809 18.809 0 01-18.531 0 89.56 89.56 0 00-7.076-3.6c-34.716-15.742-74.48 9.699-74.665 47.817l-.001.415c0 48.323 40.745 87.497 91.007 87.497s91.007-39.174 91.007-87.497v-.415z" fill="#ffc4b0"/><path d="M319.671 416.075l.001-.415c.129-26.574 19.495-46.981 42.975-51.574-24.063-4.738-48.152 8.212-58.15 29.792-1.415-.4-3.012-.618-4.826-.618-12.6 0-22.815 10.214-22.815 22.814s10.214 22.815 22.815 22.815c1.1 0 2.117-.083 3.066-.233 10.357 37.378 45.802 64.916 87.941 64.916 3.38 0 6.715-.183 10-.528-45.556-4.788-81.007-41.895-81.007-86.969z" fill="#e6b09c"/><path d="M299.321 271.308L256 255.953l-43.321 15.354c-8.48 0-15.354 6.874-15.354 15.354s6.874 15.354 15.354 15.354h86.641c8.48 0 15.354-6.874 15.354-15.354.001-8.479-6.874-15.353-15.353-15.353z" fill="#a19fa0"/><path d="M217.325 286.662c0-8.48 6.874-15.354 15.354-15.354L266 259.498l-10-3.544-43.321 15.354c-8.48 0-15.354 6.875-15.354 15.354 0 8.48 6.874 15.354 15.354 15.354h20c-8.48 0-15.354-6.874-15.354-15.354z" fill="#878586"/><path d="M299.32 240.599h-86.641c-8.48 0-15.354 6.874-15.354 15.354s6.874 15.354 15.354 15.354h86.641c8.48 0 15.354-6.874 15.354-15.354.001-8.48-6.874-15.354-15.354-15.354z" fill="#bab8b9"/><path d="M217.325 255.953c0-8.48 6.874-15.354 15.354-15.354h-20c-8.48 0-15.354 6.874-15.354 15.354s6.874 15.354 15.354 15.354h20c-8.48.001-15.354-6.874-15.354-15.354z" fill="#a19fa0"/><path d="M207.5 130.848a7.5 7.5 0 00-7.5 7.5v7.722a7.5 7.5 0 0015 0v-7.722a7.5 7.5 0 00-7.5-7.5zM302.5 130.848a7.5 7.5 0 00-7.5 7.5v7.722a7.5 7.5 0 0015 0v-7.722a7.5 7.5 0 00-7.5-7.5zM273.875 140.405a7.5 7.5 0 00-10.583.71c-1.756 2.008-4.414 3.16-7.292 3.16-2.879 0-5.537-1.152-7.292-3.16a7.498 7.498 0 00-10.583-.71 7.499 7.499 0 00-.71 10.583c4.604 5.267 11.378 8.288 18.585 8.288s13.981-3.021 18.585-8.288a7.499 7.499 0 00-.71-10.583zM263.5 28.719V8.428a7.5 7.5 0 00-15 0V28.72a7.5 7.5 0 1015-.001zM168.985 72.225c1.915.005 3.843-.698 5.304-2.16a7.5 7.5 0 000-10.606L159.941 45.11a7.498 7.498 0 00-10.606 0 7.5 7.5 0 000 10.606l14.349 14.348c1.416 1.418 3.352 2.156 5.301 2.161zM132.944 159.276a7.5 7.5 0 000-15h-20.292a7.5 7.5 0 000 15h20.292zM362.666 45.11a7.5 7.5 0 00-10.606 0l-14.348 14.348a7.5 7.5 0 000 10.607c2.899 2.899 7.709 2.897 10.606 0l14.348-14.348a7.5 7.5 0 000-10.607zM379.057 144.276a7.5 7.5 0 000 15h20.292a7.5 7.5 0 000-15h-20.292z"/><path d="M349.57 145.302c0-51.595-41.976-93.57-93.57-93.57s-93.569 41.976-93.569 93.57c0 37.257 16.953 57.182 29.332 71.731 5.592 6.573 10.304 12.115 12.339 17.742-8.362 3.4-14.276 11.609-14.276 21.178a22.765 22.765 0 005.94 15.354 22.765 22.765 0 00-5.94 15.354c0 12.602 10.252 22.854 22.854 22.854h9.494c1.981 16.913 16.391 30.083 33.827 30.083s31.847-13.17 33.828-30.083h9.494c12.602 0 22.854-10.252 22.854-22.854a22.765 22.765 0 00-5.94-15.354 22.765 22.765 0 005.94-15.354c0-9.568-5.913-17.777-14.275-21.177 2.035-5.627 6.747-11.169 12.339-17.742 12.376-14.55 29.329-34.475 29.329-71.732zm-42.395 110.651c0 4.331-3.523 7.854-7.854 7.854H212.68c-4.331 0-7.854-3.523-7.854-7.854 0-4.331 3.523-7.854 7.854-7.854h86.641c4.331 0 7.854 3.523 7.854 7.854zM256 324.599c-9.147 0-16.811-6.475-18.648-15.083h37.298c-1.838 8.608-9.502 15.083-18.65 15.083zm43.321-30.083H212.68c-4.331 0-7.854-3.523-7.854-7.854s3.523-7.854 7.854-7.854h86.641c4.331 0 7.854 3.523 7.854 7.854s-3.523 7.854-7.854 7.854zm-6.593-61.417h-73.455c-2.374-9.668-9.074-17.543-16.086-25.785-12.073-14.189-25.756-30.272-25.756-62.011 0-43.324 35.246-78.57 78.569-78.57 43.324 0 78.57 35.247 78.57 78.57 0 31.739-13.683 47.822-25.756 62.011-7.012 8.241-13.712 16.116-16.086 25.785zM75.5 404.952a7.5 7.5 0 00-7.5 7.5v7.328a7.5 7.5 0 0015 0v-7.328a7.5 7.5 0 00-7.5-7.5zM165.5 404.952a7.5 7.5 0 00-7.5 7.5v7.328a7.5 7.5 0 0015 0v-7.328a7.5 7.5 0 00-7.5-7.5zM138.536 414.117a7.5 7.5 0 00-10.583.71c-1.594 1.823-4.011 2.868-6.631 2.868-2.621 0-5.038-1.045-6.631-2.868a7.5 7.5 0 00-10.583-.711 7.5 7.5 0 00-.711 10.583c4.441 5.082 10.975 7.997 17.925 7.997 6.949 0 13.482-2.915 17.924-7.996a7.499 7.499 0 00-.71-10.583z"/><path d="M37.846 486.858H55.7c17.435 15.048 40.438 24.214 65.622 24.214s48.187-9.166 65.622-24.214H204.8c17.718 0 32.133-14.415 32.133-32.133v-20.972a30.143 30.143 0 005.712-17.678c0-7.678-2.875-14.693-7.597-20.04-4.709-25.156-18.275-48.156-38.434-64.967-20.952-17.472-47.69-27.094-75.291-27.094-13.926 0-27.563 2.394-40.529 7.115a7.5 7.5 0 005.132 14.094c11.317-4.12 23.226-6.209 35.397-6.209 24.097 0 47.423 8.386 65.684 23.614 14.019 11.69 24.37 26.798 30.018 43.534l-.197-.026a30.385 30.385 0 00-4.197-.328c-.098-.001-.84.08-.886-.002-4.262-7.341-10.111-13.741-17.008-18.686-9.966-7.206-22.194-11.472-35.389-11.472-11.594 0-22.444 3.647-32.452 9.307-3.363 1.902-7.656 1.916-11.04.052-.035-.019-.072-.032-.107-.052-9.93-5.594-20.86-9.307-32.452-9.307-13.138 0-26.338 4.484-36.826 12.545-6.269 4.818-11.596 10.768-15.571 17.613-.114-.002-3.658.111-5.298.359 6.319-18.836 18.521-35.4 35.31-47.615a7.5 7.5 0 00-8.825-12.129c-23.593 17.165-39.333 41.843-44.52 69.689C2.862 401.412 0 408.414 0 416.075a30.143 30.143 0 005.712 17.679v20.972c0 17.717 14.415 32.132 32.134 32.132zm-17.095-82.733a15.43 15.43 0 013.683-2.183c-.11.464-.192.937-.291 1.404a60.873 60.873 0 00-1.328 12.26v.054c-.185 4.634.315 9.317.996 13.896.02.131.032.263.052.395a15.204 15.204 0 01-1.19-.615 15.42 15.42 0 01-3.708-3A15.247 15.247 0 0115 416.075c0-4.562 2.161-9.08 5.751-11.95zm17.095 67.733c-9.448 0-17.134-7.686-17.134-17.133v-9.901l.078.024a30.436 30.436 0 007.116 1.445c3.182 9.153 7.798 17.77 13.671 25.565h-3.731zm2.62-35.756c-1.992-7.377-3.009-15.099-2.578-22.742.774-13.738 7.745-25.869 18.153-33.667 12.267-9.099 28.776-11.795 43.714-5.92 7.342 2.888 13.325 7.61 21.567 7.61 7.986 0 14.06-4.554 21.158-7.437.138-.056.273-.119.411-.174 14.94-5.877 31.454-3.178 43.721 5.927 9.823 7.362 16.582 18.582 17.957 31.368.882 8.398-.195 16.944-2.4 25.065-9.315 34.435-42.03 59.94-80.847 59.94-38.829 0-71.552-25.52-80.856-59.97zm178.582-33.781l.039.018c5.184 2.543 8.557 7.968 8.557 13.736 0 5.096-2.68 10.063-6.982 12.841a15.95 15.95 0 01-1.883 1.034c.154-1.019.287-2.042.408-3.066.916-7.762.948-15.734-.659-23.409-.107-.511-.197-1.026-.317-1.533.283.118.562.244.837.379zm2.885 52.404c0 9.447-7.686 17.133-17.133 17.133h-3.732c5.873-7.796 10.488-16.413 13.67-25.565.08-.006.159-.02.239-.026 2.338-.2 4.644-.682 6.872-1.417l.085-.025v9.9h-.001zM344.5 404.952a7.5 7.5 0 00-7.5 7.5v7.328a7.5 7.5 0 0015 0v-7.328a7.5 7.5 0 00-7.5-7.5zM434.5 404.952a7.5 7.5 0 00-7.5 7.5v7.328a7.5 7.5 0 0015 0v-7.328a7.5 7.5 0 00-7.5-7.5zM407.892 414.116a7.5 7.5 0 00-10.583.711c-1.593 1.822-4.01 2.868-6.631 2.868s-5.038-1.045-6.631-2.868a7.498 7.498 0 00-10.583-.71 7.499 7.499 0 00-.71 10.583c4.442 5.082 10.975 7.996 17.924 7.996 6.95 0 13.483-2.915 17.925-7.997a7.5 7.5 0 00-.711-10.583z"/><path d="M461.087 327.239a7.5 7.5 0 00-8.976 12.018c16.249 12.136 28.092 28.431 34.283 46.868l-.075-.01a29.988 29.988 0 00-3.371-.322 29.205 29.205 0 00-1.848-.026 59.93 59.93 0 00-14.01-16.389l-.084-.07c-10.709-8.754-24.466-13.699-38.302-13.699-11.565 0-22.463 3.656-32.452 9.307-3.336 1.887-7.583 1.909-10.953.093-.063-.034-.131-.058-.193-.093-10.002-5.643-20.871-9.307-32.453-9.307-13.179 0-25.394 4.256-35.353 11.448-6.906 4.987-12.761 11.336-17.043 18.71a30.293 30.293 0 00-3.381.128 29.53 29.53 0 00-1.899.228c5.648-16.736 15.999-31.844 30.018-43.534 18.26-15.228 41.587-23.614 65.684-23.614 12.764 0 25.241 2.308 37.084 6.86a7.5 7.5 0 005.381-14.001c-13.567-5.215-27.855-7.859-42.466-7.859-27.601 0-54.339 9.622-75.291 27.094-20.159 16.811-33.726 39.81-38.435 64.966-4.722 5.347-7.597 12.363-7.597 20.041 0 15.91 12.323 28.987 27.923 30.211 13.118 37.616 50.029 64.786 93.399 64.786s80.281-27.17 93.399-64.786C499.677 445.062 512 431.984 512 416.075c0-7.66-2.862-14.661-7.565-20.003-5.093-27.335-20.418-51.708-43.348-68.833zM293.222 429.964c-5.231-2.438-8.866-7.748-8.866-13.89 0-4.363 1.835-8.305 4.772-11.097a15.477 15.477 0 013.611-2.556c.343-.175.695-.333 1.05-.481-1.094 4.614-1.619 9.394-1.619 14.133a93.966 93.966 0 001.052 13.891zm97.456 66.108c-38.824 0-71.544-25.514-80.853-59.958l-.058-.223c-1.95-7.304-2.95-14.977-2.523-22.537.775-13.737 7.746-25.865 18.153-33.662 12.265-9.098 28.772-11.794 43.707-5.921 7.335 2.902 13.335 7.612 21.574 7.613 7.811 0 14.34-4.692 21.322-7.506.082-.033.163-.071.245-.104 14.919-5.869 31.406-3.188 43.668 5.884 10.434 7.797 17.424 19.948 18.2 33.716.427 7.579-.579 15.196-2.524 22.518l-.058.223c-9.309 34.444-42.028 59.957-80.853 59.957zm97.456-66.108c.019-.123.031-.247.049-.369 1.263-8.582 1.518-17.454-.269-25.981-.009-.041-.224-1.158-.346-1.67.481.201.951.429 1.41.679 4.893 2.653 8.021 7.885 8.021 13.453.001 6.141-3.633 11.45-8.865 13.888z"/></svg>
