<svg height="512pt" viewBox="0 0 512 512" width="512pt" xmlns="http://www.w3.org/2000/svg"><path d="m421.714844 169.933594c5.082031-7.644532 6.84375-17.40625 4.019531-26.863282-5.132813-17.195312-23.730469-26.5-40.800781-21.085937l-73.570313 23.324219c-16.394531 5.195312-33.695312-4.875-37.304687-21.730469-1.515625-7.085937-2.882813-15.058594-4.007813-24.019531-4.035156-32.144532-24.046875-47.800782-42.671875-55.425782-14.636718-5.996093-29.917968 7.03125-26.40625 22.488282 4.003906 17.609375 7.195313 39.910156 6.1875 58.035156-2.972656 53.410156-71.414062 81.566406-71.414062 81.566406l59.820312 230.136719 246.367188-78.105469c16.773437-5.316406 26.074218-23.261718 20.769531-40.082031-2.410156-7.644531-7.742187-13.0625-12.558594-16.601563-3.464843-2.542968-3.394531-7.683593.035157-10.273437 10.496093-7.914063 15.402343-21.886719 11.214843-35.160156-3.050781-9.671875-10.269531-16.863281-19.042969-20.214844-3.59375-1.371094-5.003906-5.84375-2.851562-9.039063 5.257812-7.800781 7.042969-17.84375 3.992188-27.519531-3.050782-9.675781-10.269532-16.863281-19.046876-20.214843-3.675781-1.402344-4.910156-5.929688-2.730468-9.214844zm0 0" fill="#ffe2d9"/><path d="m256 335.875c-61.273438-33.265625-79.339844-104.671875-84.433594-151.378906-17.902344 14.355468-35.820312 21.730468-35.820312 21.730468l59.820312 230.136719 152.863282-48.464843c-25.835938-14.957032-59.515626-34.152344-92.429688-52.023438zm0 0" fill="#ffcfc2"/><path d="m146.445312 488.726562 38.886719-12.328124c24.425781-7.742188 37.964844-33.875 30.242188-58.367188l-68.539063-217.339844-83.109375 26.347656c-20.1875 6.402344-31.378906 28-24.996093 48.242188l59.40625 188.382812c6.382812 20.242188 27.921874 31.464844 48.109374 25.0625zm0 0" fill="#b2e59c"/><path d="m98.335938 463.664062c6.382812 20.242188 27.921874 31.464844 48.109374 25.0625l38.886719-12.328124c24.425781-7.742188 37.964844-33.875 30.242188-58.367188l-16.269531-51.597656c-68.164063 9.558594-112.394532-5.742188-138.402344-21.476563zm0 0" fill="#9ad880"/><path d="m175.199219 416.976562c4.089843 12.976563-3.082031 26.820313-16.019531 30.921876-12.941407 4.101562-26.746094-3.089844-30.839844-16.0625-4.089844-12.976563 3.082031-26.820313 16.023437-30.921876 12.9375-4.101562 26.746094 3.089844 30.835938 16.0625zm0 0" fill="#ffeb99"/><path d="m99.824219 17.277344 6.949219 12.738281c6.929687 12.707031 17.351562 23.15625 30.023437 30.105469l12.707031 6.96875c13 7.128906 13 25.851562 0 32.980468l-12.707031 6.96875c-12.671875 6.949219-23.09375 17.398438-30.023437 30.105469l-6.949219 12.738281c-7.109375 13.035157-25.785157 13.035157-32.894531 0l-6.949219-12.738281c-6.929688-12.707031-17.351563-23.15625-30.023438-30.105469l-12.703125-6.96875c-13.003906-7.128906-13.003906-25.851562 0-32.980468l12.703125-6.96875c12.671875-6.949219 23.09375-17.398438 30.023438-30.105469l6.949219-12.738281c7.109374-13.035156 25.785156-13.035156 32.894531 0zm0 0" fill="#ffeb99"/><path d="m461.1875 400.730469 5.0625 9.28125c5.054688 9.261719 12.648438 16.875 21.882812 21.941406l9.257813 5.078125c9.476563 5.195312 9.476563 18.84375 0 24.039062l-9.257813 5.078126c-9.234374 5.066406-16.828124 12.679687-21.882812 21.941406l-5.0625 9.28125c-5.183594 9.503906-18.792969 9.503906-23.976562 0l-5.0625-9.28125c-5.050782-9.261719-12.644532-16.875-21.882813-21.941406l-9.257813-5.078126c-9.476562-5.195312-9.476562-18.84375 0-24.039062l9.257813-5.078125c9.238281-5.066406 16.832031-12.679687 21.882813-21.941406l5.0625-9.28125c5.183593-9.503907 18.792968-9.503907 23.976562 0zm0 0" fill="#ffde55"/><path d="m469.855469 315.917969c-2.328125-7.386719-7.179688-14.09375-14.074219-19.480469 12.519531-10.152344 17.648438-27.070312 12.765625-42.554688-3.460937-10.980468-11.382813-19.746093-21.871094-24.292968 5.976563-9.765625 7.429688-21.5 3.96875-32.480469-3.460937-10.976563-11.382812-19.746094-21.871093-24.292969 5.851562-9.570312 7.371093-21.105468 4.148437-31.890625-3-10.058593-9.820313-18.332031-19.199219-23.296875-9.492187-5.023437-20.8125-6.039062-31.054687-2.796875l-73.574219 23.324219c-22.1875 6.347656-26.402344-10.082031-27.703125-16.144531-1.546875-7.242188-2.859375-15.109375-3.902344-23.390625-4.601562-36.660156-28.246093-53.640625-47.269531-61.429688-9.347656-3.828125-19.945312-2.148437-27.65625 4.382813-7.746094 6.5625-11.15625 16.796875-8.902344 26.710937 4.65625 20.484375 6.847656 40.878906 6.007813 55.953125-2.015625 36.203125-39.058594 60.457031-55.59375 69.523438l-82.417969 26.128906c-24.089844 7.636719-37.496094 33.496094-29.878906 57.644531l59.40625 188.386719c3.695312 11.714844 18.195312 40.847656 57.53125 29.953125l38.882812-12.324219c28.320313-8.980469 44.082032-39.382812 35.128906-67.773437l-66.710937-211.546875c9.824219-5.773438 22.160156-14.253907 32.980469-25.441407 15.953125-16.488281 24.585937-34.5625 25.648437-53.714843 1.296875-23.304688-4.011719-49.804688-6.359375-60.113281-1.019531-4.5.464844-8.964844 3.976563-11.9375 3.472656-2.945313 8.0625-3.671876 12.273437-1.949219 22.289063 9.125 35.101563 25.753906 38.070313 49.421875 1.09375 8.703125 2.636719 16.964844 4.117187 24.65625 6.976563 36.230468 37.089844 30.417968 46.90625 27.308594l73.570313-23.324219c6.433593-2.042969 24.335937-3.382813 31.351562 16.082031 2.46875 6.859375.960938 14.480469-3.082031 20.566406-2.355469 3.546875-2.964844 7.894532-1.675781 11.925782 1.253906 3.910156 4.160156 6.988281 7.976562 8.445312 7.003907 2.675781 12.3125 8.3125 14.570313 15.46875 2.257812 7.15625 1.140625 14.839844-3.058594 21.070312-2.3125 3.433594-2.921875 7.683594-1.664062 11.660157 1.257812 3.976562 4.195312 7.101562 8.054687 8.574219 7.003906 2.675781 12.3125 8.3125 14.570313 15.46875 3.113281 9.875-.335938 20.691406-8.582032 26.914062-3.523437 2.660156-5.613281 6.875-5.585937 11.273438.027343 4.40625 2.078125 8.425781 5.625 11.03125 5.015625 3.6875 8.328125 7.996093 9.847656 12.8125 4.054687 12.855468-3.070313 26.617187-15.882813 30.679687l-193.625 61.382813c-3.945312 1.253906-6.132812 5.46875-4.882812 9.417968 1.015625 3.195313 4.429688 6.070313 9.417969 4.882813l193.625-61.386719c20.683593-6.558594 32.195312-28.757812 25.65625-49.488281zm-286.792969 153.332031-38.882812 12.328125c-7.835938 2.484375-16.171876 1.765625-23.46875-2.027344-7.328126-3.808593-12.734376-10.25-15.222657-18.144531l-59.40625-188.382812c-5.128906-16.269532 3.890625-33.691407 20.109375-38.835938l75.953125-24.078125 66.277344 210.179687c6.46875 20.511719-4.90625 42.476563-25.359375 48.960938zm0 0"/><path d="m53.394531 140.730469 6.949219 12.742187c4.675781 8.566406 13.285156 13.683594 23.035156 13.683594 9.746094 0 18.355469-5.113281 23.03125-13.683594 1.984375-3.636718.644532-8.191406-2.996094-10.175781-3.636718-1.984375-8.191406-.644531-10.171874 2.992187-2.007813 3.675782-5.691407 5.867188-9.863282 5.867188-4.175781 0-7.859375-2.191406-9.867187-5.867188l-6.949219-12.738281c-7.632812-13.996093-19.042969-25.4375-33-33.089843l-12.707031-6.96875c-3.664063-2.007813-5.855469-5.714844-5.855469-9.914063 0-4.195313 2.191406-7.902344 5.855469-9.914063l12.707031-6.96875c13.957031-7.652343 25.367188-19.09375 33-33.089843l6.949219-12.738281c2.003906-3.675782 5.691406-5.867188 9.867187-5.867188 4.171875 0 7.855469 2.191406 9.863282 5.867188l6.949218 12.742187c7.632813 13.992187 19.042969 25.433594 33 33.085937l12.703125 6.96875c3.667969 2.011719 5.859375 5.71875 5.859375 9.914063 0 4.199219-2.191406 7.90625-5.859375 9.917969l-12.703125 6.964844c-8.695312 4.769531-16.394531 10.992187-22.886718 18.5-2.710938 3.132812-2.367188 7.867187.765624 10.578124 3.132813 2.707032 7.871094 2.367188 10.578126-.769531 5.324218-6.148437 11.632812-11.25 18.753906-15.15625l12.707031-6.964843c8.542969-4.6875 13.644531-13.3125 13.644531-23.070313s-5.101562-18.382813-13.644531-23.066406l-12.707031-6.96875c-11.433594-6.269531-20.789063-15.648438-27.042969-27.117188l-6.949219-12.738281c-4.675781-8.570312-13.285156-13.6875-23.03125-13.6875-9.75 0-18.359375 5.117188-23.035156 13.6875l-6.949219 12.738281c-6.253906 11.46875-15.609375 20.847657-27.042969 27.117188l-12.707031 6.96875c-8.542969 4.683593-13.644531 13.308593-13.644531 23.066406 0 9.761719 5.101562 18.382813 13.644531 23.070313l12.707031 6.964843c11.433594 6.273438 20.789063 15.648438 27.042969 27.117188zm0 0"/><path d="m501 430.453125-9.261719-5.074219c-7.992187-4.386718-14.527343-10.9375-18.902343-18.957031l-5.0625-9.285156v.003906c-3.714844-6.808594-10.832032-11.035156-18.574219-11.039063-7.742188 0-14.859375 4.230469-18.570313 11.035157l-5.066406 9.285156c-4.371094 8.015625-10.910156 14.570313-18.902344 18.957031l-9.261718 5.074219c-6.785157 3.722656-11 10.851563-11 18.601563 0 7.746093 4.214843 14.871093 11 18.59375l9.261718 5.078124c7.992188 4.382813 14.53125 10.9375 18.902344 18.953126l5.066406 9.285156c3.710938 6.808594 10.828125 11.035156 18.570313 11.035156 7.742187 0 14.859375-4.226562 18.574219-11.035156l5.0625-9.285156c4.375-8.015626 10.910156-14.570313 18.902343-18.953126l9.261719-5.078124c6.785156-3.722657 11-10.847657 11-18.59375 0-7.75-4.214844-14.878907-11-18.601563zm-7.214844 24.042969-9.257812 5.078125c-10.515625 5.765625-19.109375 14.382812-24.859375 24.921875l-5.066407 9.285156c-1.582031 2.90625-4.304687 3.21875-5.402343 3.21875-1.097657 0-3.820313-.3125-5.402344-3.21875l-5.066406-9.285156c-5.746094-10.539063-14.34375-19.15625-24.859375-24.921875l-9.257813-5.078125c-2.898437-1.589844-3.214843-4.335938-3.214843-5.445313 0-1.105469.316406-3.851562 3.214843-5.441406l9.257813-5.078125c10.515625-5.765625 19.113281-14.386719 24.863281-24.925781l5.0625-9.285157c1.585937-2.902343 4.308594-3.21875 5.402344-3.21875 1.097656.003907 3.820312.316407 5.40625 3.21875l5.0625 9.285157c5.75 10.539062 14.347656 19.160156 24.859375 24.925781l9.261718 5.078125c2.898438 1.589844 3.214844 4.335937 3.214844 5.441406-.003906 1.109375-.316406 3.855469-3.21875 5.445313zm0 0"/><path d="m151.769531 392.253906c-17.757812 0-32.152343 14.394532-32.152343 32.152344s14.394531 32.152344 32.152343 32.152344c17.757813 0 32.15625-14.394532 32.15625-32.152344s-14.398437-32.152344-32.15625-32.152344zm0 49.226563c-9.429687 0-17.074219-7.644531-17.074219-17.074219s7.644532-17.074219 17.074219-17.074219c9.429688 0 17.074219 7.644531 17.074219 17.074219s-7.644531 17.074219-17.074219 17.074219zm0 0"/></svg>